<svg width="22" height="23" viewBox="0 0 22 23" fill="none" xmlns="http://www.w3.org/2000/svg">
<g clip-path="url(#clip0_44_3010)">
<path d="M10.9038 11.8042C14.1159 11.8042 16.7194 9.35734 16.7194 6.33826C16.7194 3.31918 14.1159 0.872314 10.9038 0.872314C7.69162 0.872314 5.08825 3.31918 5.08825 6.33826C5.08825 9.35734 7.69162 11.8042 10.9038 11.8042ZM8.82747 13.8539C4.35223 13.8539 0.726593 17.2616 0.726593 21.4678C0.726593 22.1682 1.33087 22.7361 2.07598 22.7361H19.7316C20.4767 22.7361 21.081 22.1682 21.081 21.4678C21.081 17.2616 17.4554 13.8539 12.9802 13.8539H8.82747Z" fill="white"/>
</g>
<defs>
<clipPath id="clip0_44_3010">
<rect width="20.3544" height="21.8638" fill="white" transform="translate(0.726593 0.872314)"/>
</clipPath>
</defs>
</svg>
