<svg width="22" height="18" viewBox="0 0 22 18" fill="none" xmlns="http://www.w3.org/2000/svg">
<g clip-path="url(#clip0_44_3015)">
<path d="M14.0842 12.2258C17.9484 12.2258 21.081 9.5639 21.081 6.28034C21.081 2.99679 17.9484 0.334808 14.0842 0.334808C10.22 0.334808 7.08735 2.99679 7.08735 6.28034C7.08735 6.91206 7.20264 7.5235 7.41732 8.09441L1.00488 13.5433C0.82598 13.6954 0.726593 13.9015 0.726593 14.1177V16.8202C0.726593 17.2694 1.15197 17.6309 1.68071 17.6309H4.86109C5.38982 17.6309 5.8152 17.2694 5.8152 16.8202V15.4689H7.40539C7.93413 15.4689 8.3595 15.1074 8.3595 14.6581V13.3069H9.94969C10.2041 13.3069 10.4466 13.2225 10.6255 13.0704L11.9493 11.9455C12.6212 12.1279 13.3407 12.2258 14.0842 12.2258ZM15.6744 6.28034C14.7958 6.28034 14.0842 5.67566 14.0842 4.92909C14.0842 4.18252 14.7958 3.57783 15.6744 3.57783C16.553 3.57783 17.2646 4.18252 17.2646 4.92909C17.2646 5.67566 16.553 6.28034 15.6744 6.28034Z" fill="white"/>
</g>
<defs>
<clipPath id="clip0_44_3015">
<rect width="20.3544" height="17.523" fill="white" transform="translate(0.726593 0.334808)"/>
</clipPath>
</defs>
</svg>
