<svg width="33" height="31" viewBox="0 0 33 31" fill="none" xmlns="http://www.w3.org/2000/svg">
<path d="M11.0909 2.57364H22.4512C26.7789 2.57364 30.2952 5.91935 30.2952 10.0372V20.8464C30.2952 22.8258 29.4688 24.7242 27.9978 26.1239C26.5267 27.5236 24.5315 28.3099 22.4512 28.3099H11.0909C6.76312 28.3099 3.24683 24.9642 3.24683 20.8464V10.0372C3.24683 8.05771 4.07325 6.15933 5.54429 4.75965C7.01533 3.35997 9.01049 2.57364 11.0909 2.57364ZM10.8204 5.14727C9.52911 5.14727 8.29074 5.63533 7.37768 6.5041C6.46462 7.37287 5.95166 8.55117 5.95166 9.77979V21.1038C5.95166 23.6645 8.12906 25.7363 10.8204 25.7363H22.7217C24.0129 25.7363 25.2513 25.2482 26.1644 24.3794C27.0774 23.5107 27.5904 22.3324 27.5904 21.1038V9.77979C27.5904 7.21904 25.413 5.14727 22.7217 5.14727H10.8204ZM23.8712 7.07749C24.3196 7.07749 24.7496 7.24695 25.0666 7.54861C25.3836 7.85027 25.5617 8.2594 25.5617 8.686C25.5617 9.11261 25.3836 9.52174 25.0666 9.8234C24.7496 10.1251 24.3196 10.2945 23.8712 10.2945C23.4229 10.2945 22.9929 10.1251 22.6758 9.8234C22.3588 9.52174 22.1807 9.11261 22.1807 8.686C22.1807 8.2594 22.3588 7.85027 22.6758 7.54861C22.9929 7.24695 23.4229 7.07749 23.8712 7.07749ZM16.771 9.00771C18.5644 9.00771 20.2844 9.68558 21.5525 10.8922C22.8207 12.0988 23.5331 13.7354 23.5331 15.4418C23.5331 17.1482 22.8207 18.7847 21.5525 19.9913C20.2844 21.198 18.5644 21.8758 16.771 21.8758C14.9776 21.8758 13.2576 21.198 11.9895 19.9913C10.7214 18.7847 10.0089 17.1482 10.0089 15.4418C10.0089 13.7354 10.7214 12.0988 11.9895 10.8922C13.2576 9.68558 14.9776 9.00771 16.771 9.00771ZM16.771 11.5813C15.695 11.5813 14.663 11.9881 13.9021 12.712C13.1412 13.436 12.7138 14.4179 12.7138 15.4418C12.7138 16.4656 13.1412 17.4475 13.9021 18.1715C14.663 18.8955 15.695 19.3022 16.771 19.3022C17.8471 19.3022 18.8791 18.8955 19.6399 18.1715C20.4008 17.4475 20.8283 16.4656 20.8283 15.4418C20.8283 14.4179 20.4008 13.436 19.6399 12.712C18.8791 11.9881 17.8471 11.5813 16.771 11.5813Z" fill="white"/>
</svg>
