<svg width="25" height="24" viewBox="0 0 25 24" fill="none" xmlns="http://www.w3.org/2000/svg">
<path d="M17.972 14.957L17.673 15.3254L18.025 15.6429L24.207 21.2187C24.598 21.5702 24.598 22.118 24.207 22.4695C23.787 22.8482 23.085 22.8482 22.665 22.4695L16.483 16.8939L16.196 16.6347L15.873 16.8479C14.275 17.9025 12.301 18.5255 10.157 18.5255C4.772 18.5255 0.5 14.6046 0.5 9.87188C0.5 5.13919 4.772 1.21829 10.157 1.21829C15.541 1.21829 19.813 5.13919 19.813 9.87188C19.813 11.7681 19.131 13.5248 17.972 14.957ZM10.157 16.709C14.265 16.709 17.688 13.6943 17.688 9.87188C17.688 6.04949 14.265 3.03478 10.157 3.03478C6.049 3.03478 2.625 6.04949 2.625 9.87188C2.625 13.6943 6.049 16.709 10.157 16.709Z" fill="#1B1426" stroke="#F9AA01"/>
</svg>
