<svg width="25" height="24" viewBox="0 0 25 24" fill="none" xmlns="http://www.w3.org/2000/svg">
<path d="M20.7812 21C21.0937 21 21.3542 20.9 21.5625 20.7C21.7708 20.5 21.875 20.25 21.875 19.95V15.9C21.875 15.6667 21.7969 15.4623 21.6406 15.287C21.4844 15.1123 21.2847 15 21.0417 14.95L17.4479 14.25C17.2049 14.2167 16.9573 14.2373 16.7052 14.312C16.4538 14.3873 16.25 14.5 16.0938 14.65L13.6458 17C12.3264 16.2333 11.1198 15.325 10.026 14.275C8.93229 13.225 8.02083 12.1 7.29167 10.9L9.79167 8.45C9.94792 8.3 10.0479 8.129 10.0917 7.937C10.1347 7.74567 10.1389 7.53333 10.1042 7.3L9.42708 3.8C9.39236 3.56667 9.27951 3.375 9.08854 3.225C8.89757 3.075 8.68056 3 8.4375 3H4.21875C3.90625 3 3.64583 3.1 3.4375 3.3C3.22917 3.5 3.125 3.75 3.125 4.05C3.125 6.2 3.62431 8.29567 4.62292 10.337C5.62083 12.379 6.94028 14.1873 8.58125 15.762C10.2215 17.3373 12.1049 18.604 14.2312 19.562C16.3583 20.5207 18.5417 21 20.7812 21Z" fill="white"/>
</svg>
