<svg width="25" height="24" viewBox="0 0 25 24" fill="none" xmlns="http://www.w3.org/2000/svg">
<path d="M20.8335 4H4.16683C3.021 4 2.09391 4.9 2.09391 6L2.0835 18C2.0835 19.1 3.021 20 4.16683 20H20.8335C21.9793 20 22.9168 19.1 22.9168 18V6C22.9168 4.9 21.9793 4 20.8335 4ZM20.4168 8.25L13.0522 12.67C12.7189 12.87 12.2814 12.87 11.9481 12.67L4.5835 8.25C4.47905 8.19371 4.38758 8.11766 4.31463 8.02645C4.24168 7.93525 4.18877 7.83078 4.1591 7.71937C4.12942 7.60796 4.1236 7.49194 4.14199 7.37831C4.16038 7.26468 4.2026 7.15581 4.26608 7.0583C4.32957 6.96079 4.413 6.87666 4.51134 6.811C4.60967 6.74533 4.72086 6.69951 4.83818 6.6763C4.9555 6.65309 5.0765 6.65297 5.19387 6.67595C5.31123 6.69893 5.42252 6.74453 5.521 6.81L12.5002 11L19.4793 6.81C19.5778 6.74453 19.6891 6.69893 19.8065 6.67595C19.9238 6.65297 20.0448 6.65309 20.1621 6.6763C20.2795 6.69951 20.3907 6.74533 20.489 6.811C20.5873 6.87666 20.6708 6.96079 20.7342 7.0583C20.7977 7.15581 20.8399 7.26468 20.8583 7.37831C20.8767 7.49194 20.8709 7.60796 20.8412 7.71937C20.8116 7.83078 20.7586 7.93525 20.6857 8.02645C20.6127 8.11766 20.5213 8.19371 20.4168 8.25Z" fill="white"/>
</svg>
