<svg width="33" height="32" viewBox="0 0 33 32" fill="none" xmlns="http://www.w3.org/2000/svg">
<path d="M25.9668 4.1348C26.6842 4.1348 27.3722 4.40595 27.8794 4.88859C28.3867 5.37124 28.6717 6.02585 28.6717 6.70842V24.7238C28.6717 25.4064 28.3867 26.061 27.8794 26.5436C27.3722 27.0263 26.6842 27.2974 25.9668 27.2974H7.03296C6.3156 27.2974 5.62761 27.0263 5.12035 26.5436C4.6131 26.061 4.32813 25.4064 4.32812 24.7238V6.70842C4.32812 6.02585 4.6131 5.37124 5.12035 4.88859C5.62761 4.40595 6.3156 4.1348 7.03296 4.1348H25.9668ZM25.2906 24.0804V17.2603C25.2906 16.1477 24.8261 15.0807 23.9993 14.294C23.1725 13.5073 22.051 13.0653 20.8817 13.0653C19.7322 13.0653 18.3933 13.7344 17.7441 14.7381V13.3098H13.9709V24.0804H17.7441V17.7364C17.7441 16.7456 18.5826 15.9349 19.624 15.9349C20.1261 15.9349 20.6077 16.1247 20.9628 16.4625C21.3179 16.8004 21.5174 17.2586 21.5174 17.7364V24.0804H25.2906ZM9.57551 11.2895C10.1781 11.2895 10.756 11.0617 11.1821 10.6563C11.6082 10.2509 11.8476 9.70099 11.8476 9.12763C11.8476 7.9309 10.8333 6.95292 9.57551 6.95292C8.96934 6.95292 8.38799 7.18204 7.95936 7.58988C7.53073 7.99771 7.28992 8.55086 7.28992 9.12763C7.28992 10.3244 8.31776 11.2895 9.57551 11.2895ZM11.4554 24.0804V13.3098H7.70917V24.0804H11.4554Z" fill="white"/>
</svg>
